<svg width="18" height="18" viewBox="0 0 18 18" fill="currentColor" xmlns="http://www.w3.org/2000/svg">
<path d="M8.9375 0C7.16983 0 5.44186 0.524175 3.9721 1.50624C2.50233 2.48831 1.35679 3.88415 0.680331 5.51727C0.00387248 7.15038 -0.17312 8.94742 0.171736 10.6811C0.516591 12.4148 1.36781 14.0073 2.61774 15.2573C3.86767 16.5072 5.46018 17.3584 7.19388 17.7033C8.92759 18.0481 10.7246 17.8711 12.3577 17.1947C13.9909 16.5182 15.3867 15.3727 16.3688 13.9029C17.3508 12.4331 17.875 10.7052 17.875 8.9375C17.8725 6.5679 16.9301 4.29606 15.2545 2.6205C13.5789 0.944933 11.3071 0.00250234 8.9375 0ZM8.9375 16.5C7.44178 16.5 5.97965 16.0565 4.736 15.2255C3.49236 14.3945 2.52305 13.2134 1.95066 11.8315C1.37828 10.4497 1.22851 8.92911 1.52032 7.46213C1.81212 5.99515 2.53237 4.64764 3.59001 3.59001C4.64764 2.53237 5.99515 1.81211 7.46213 1.52031C8.92912 1.22851 10.4497 1.37827 11.8315 1.95066C13.2134 2.52305 14.3945 3.49235 15.2255 4.736C16.0565 5.97965 16.5 7.44178 16.5 8.9375C16.4977 10.9425 15.7002 12.8647 14.2825 14.2825C12.8647 15.7002 10.9425 16.4977 8.9375 16.5ZM9.96875 8.9375C9.96875 9.14146 9.90827 9.34084 9.79496 9.51043C9.68164 9.68002 9.52058 9.8122 9.33215 9.89025C9.14371 9.9683 8.93636 9.98873 8.73632 9.94893C8.53627 9.90914 8.35252 9.81093 8.2083 9.6667C8.06408 9.52248 7.96586 9.33873 7.92607 9.13869C7.88628 8.93864 7.9067 8.73129 7.98475 8.54286C8.06281 8.35442 8.19498 8.19336 8.36457 8.08005C8.53416 7.96673 8.73354 7.90625 8.9375 7.90625C9.21101 7.90625 9.47331 8.0149 9.66671 8.2083C9.8601 8.40169 9.96875 8.664 9.96875 8.9375ZM9.96875 5.15625C9.96875 5.36021 9.90827 5.55959 9.79496 5.72918C9.68164 5.89877 9.52058 6.03095 9.33215 6.109C9.14371 6.18705 8.93636 6.20748 8.73632 6.16769C8.53627 6.12789 8.35252 6.02968 8.2083 5.88545C8.06408 5.74123 7.96586 5.55748 7.92607 5.35744C7.88628 5.15739 7.9067 4.95004 7.98475 4.76161C8.06281 4.57317 8.19498 4.41211 8.36457 4.2988C8.53416 4.18548 8.73354 4.125 8.9375 4.125C9.21101 4.125 9.47331 4.23365 9.66671 4.42705C9.8601 4.62044 9.96875 4.88275 9.96875 5.15625ZM9.96875 12.7188C9.96875 12.9227 9.90827 13.1221 9.79496 13.2917C9.68164 13.4613 9.52058 13.5934 9.33215 13.6715C9.14371 13.7496 8.93636 13.77 8.73632 13.7302C8.53627 13.6904 8.35252 13.5922 8.2083 13.448C8.06408 13.3037 7.96586 13.12 7.92607 12.9199C7.88628 12.7199 7.9067 12.5125 7.98475 12.3241C8.06281 12.1357 8.19498 11.9746 8.36457 11.8613C8.53416 11.748 8.73354 11.6875 8.9375 11.6875C9.21101 11.6875 9.47331 11.7962 9.66671 11.9895C9.8601 12.1829 9.96875 12.4452 9.96875 12.7188Z" fill="currentColor"/>
</svg>
