<svg width="7" height="9" viewBox="0 0 7 9" fill="none" xmlns="http://www.w3.org/2000/svg">
<path d="M3.4375 0C2.52614 0.00103388 1.65239 0.36353 1.00796 1.00796C0.36353 1.65239 0.00103388 2.52614 0 3.4375C0 6.37891 3.125 8.60039 3.2582 8.69336C3.31075 8.73017 3.37335 8.74991 3.4375 8.74991C3.50165 8.74991 3.56425 8.73017 3.6168 8.69336C3.75 8.60039 6.875 6.37891 6.875 3.4375C6.87397 2.52614 6.51147 1.65239 5.86704 1.00796C5.22261 0.36353 4.34886 0.00103388 3.4375 0ZM3.4375 2.1875C3.68473 2.1875 3.9264 2.26081 4.13196 2.39816C4.33752 2.53551 4.49774 2.73074 4.59235 2.95915C4.68696 3.18755 4.71171 3.43889 4.66348 3.68136C4.61525 3.92384 4.4962 4.14657 4.32138 4.32138C4.14657 4.4962 3.92384 4.61525 3.68136 4.66348C3.43889 4.71171 3.18755 4.68696 2.95915 4.59235C2.73074 4.49774 2.53551 4.33752 2.39816 4.13196C2.26081 3.9264 2.1875 3.68473 2.1875 3.4375C2.1875 3.10598 2.3192 2.78804 2.55362 2.55362C2.78804 2.3192 3.10598 2.1875 3.4375 2.1875Z" fill="#353535"/>
</svg>
