<svg width="20" height="16" viewBox="0 0 20 16" fill="currentColor" xmlns="http://www.w3.org/2000/svg">
<path d="M19.0489 7.07663L12.1739 0.201635C12.0778 0.105429 11.9553 0.0398815 11.8219 0.013282C11.6886 -0.0133175 11.5503 0.000225872 11.4247 0.0521992C11.299 0.104172 11.1916 0.192241 11.116 0.305268C11.0404 0.418294 11 0.551202 10.9999 0.687182V4.15476C8.77073 4.34554 6.30862 5.43695 4.28307 7.15484C1.84417 9.22421 0.325651 11.8909 0.00682276 14.6632C-0.0180925 14.8787 0.02561 15.0966 0.131711 15.2859C0.237811 15.4752 0.400904 15.6261 0.597778 15.7173C0.794652 15.8085 1.01528 15.8353 1.22825 15.7939C1.44123 15.7524 1.63571 15.6449 1.78401 15.4865C2.72932 14.4802 6.09292 11.2979 10.9999 11.0177V14.4372C11 14.5732 11.0404 14.7061 11.116 14.8191C11.1916 14.9321 11.299 15.0202 11.4247 15.0722C11.5503 15.1241 11.6886 15.1377 11.8219 15.1111C11.9553 15.0845 12.0778 15.0189 12.1739 14.9227L19.0489 8.04773C19.1774 7.91885 19.2496 7.74423 19.2496 7.56218C19.2496 7.38013 19.1774 7.20552 19.0489 7.07663ZM12.3749 12.7777V10.3122C12.3749 10.1298 12.3025 9.95498 12.1736 9.82605C12.0447 9.69711 11.8698 9.62468 11.6874 9.62468C9.27432 9.62468 6.92393 10.2546 4.70159 11.4981C3.56974 12.1343 2.51517 12.899 1.55885 13.7772C2.05729 11.7284 3.3137 9.78023 5.17253 8.20328C7.16799 6.51117 9.60346 5.49968 11.6874 5.49968C11.8698 5.49968 12.0447 5.42725 12.1736 5.29832C12.3025 5.16939 12.3749 4.99452 12.3749 4.81218V2.34749L17.5905 7.56218L12.3749 12.7777Z" fill="currentColor"/>
</svg>
